<svg xmlns="http://www.w3.org/2000/svg" width="58.21" height="58.21" viewBox="0 0 58.21 58.21"><defs><style>.a{fill:#202534;}.b{fill:none;stroke:#fff;stroke-miterlimit:10;stroke-width:1.5px;}.c{fill:#fff;}</style></defs><g transform="translate(-379.515 -2651.718)"><circle class="a" cx="29.105" cy="29.105" r="29.105" transform="translate(379.515 2651.718)"/><line class="b" y2="38.187" transform="translate(408.62 2661.729)"/><path class="c" d="M403.653,2687.477a4.155,4.155,0,0,0,1.265,1.485,5.471,5.471,0,0,0,1.851.843,8.761,8.761,0,0,0,2.2.275,11.392,11.392,0,0,0,1.65-.129,5.706,5.706,0,0,0,1.649-.495,3.584,3.584,0,0,0,1.283-1.008,2.528,2.528,0,0,0,.514-1.631,2.3,2.3,0,0,0-.679-1.723,5.368,5.368,0,0,0-1.778-1.1,17.77,17.77,0,0,0-2.493-.77q-1.393-.33-2.822-.733a24.976,24.976,0,0,1-2.86-.9,9.809,9.809,0,0,1-2.493-1.375,6.478,6.478,0,0,1-1.778-2.108,6.391,6.391,0,0,1-.678-3.061,6.861,6.861,0,0,1,.861-3.5,7.807,7.807,0,0,1,2.255-2.474,9.807,9.807,0,0,1,3.153-1.466,13.4,13.4,0,0,1,3.519-.477,16.682,16.682,0,0,1,3.941.458,9.851,9.851,0,0,1,3.355,1.485,7.522,7.522,0,0,1,2.328,2.621,8.044,8.044,0,0,1,.861,3.868h-5.572a4.632,4.632,0,0,0-.495-1.943,3.241,3.241,0,0,0-1.118-1.21,4.736,4.736,0,0,0-1.6-.623,9.85,9.85,0,0,0-1.961-.183,6.811,6.811,0,0,0-1.394.146,3.731,3.731,0,0,0-1.264.513,3.171,3.171,0,0,0-.935.917,2.455,2.455,0,0,0-.367,1.393,2.346,2.346,0,0,0,.294,1.246,2.6,2.6,0,0,0,1.154.88,14.629,14.629,0,0,0,2.383.807q1.521.4,3.978,1.026.734.147,2.035.532a9.768,9.768,0,0,1,2.584,1.228,7.811,7.811,0,0,1,2.218,2.255,6.413,6.413,0,0,1,.935,3.611,8.016,8.016,0,0,1-.7,3.336,7.241,7.241,0,0,1-2.072,2.658,9.939,9.939,0,0,1-3.409,1.741,16.1,16.1,0,0,1-4.711.624,16.561,16.561,0,0,1-4.2-.532,10.551,10.551,0,0,1-3.593-1.668,8.217,8.217,0,0,1-2.474-2.9,8.629,8.629,0,0,1-.88-4.18h5.572A4.8,4.8,0,0,0,403.653,2687.477Z"/></g></svg>