<?xml version="1.0" encoding="utf-8"?>
<!-- Generator: Adobe Illustrator 23.0.3, SVG Export Plug-In . SVG Version: 6.00 Build 0)  -->
<svg version="1.1" id="Layer_1" xmlns="http://www.w3.org/2000/svg" xmlns:xlink="http://www.w3.org/1999/xlink" x="0px" y="0px"
	 viewBox="0 0 80 320.4" style="enable-background:new 0 0 80 320.4;" xml:space="preserve">
<style type="text/css">
	.st0{fill:#D11D2B;}
	.st1{enable-background:new    ;}
	.st2{fill:#E6CFAE;}
	.st3{fill:none;stroke:#E6CFAE;stroke-width:2;}
</style>
<path class="st0" d="M0,0l80,25.4v295H0V0z"/>
<g class="st1">
	<path class="st2" d="M47.2,278.7c0,3.4-2.4,5.6-5.8,5.6c-3.6,0-5.9-2.2-5.9-5.6c0-2.4,1-4.4,4-5c0.1,0,0.1,0,0.1,0.1v2.1
		c0,0.1-0.1,0.2-0.1,0.2c-1.3,0.3-2.1,1.2-2.1,2.7c0,2,1.5,3,4,3s3.9-1.1,3.9-3c0-1.6-0.8-2.4-2.4-2.7c-0.1,0-0.1-0.1-0.1-0.2v-2.1
		c0-0.1,0.1-0.1,0.1-0.1C46.1,274.2,47.2,276,47.2,278.7z"/>
	<path class="st2" d="M47.2,263.6c0,3.4-2.4,5.7-5.8,5.7c-3.6,0-5.9-2.2-5.9-5.7c0-3.4,2.3-5.7,5.9-5.7
		C44.9,257.9,47.2,260.1,47.2,263.6z M45.4,263.5c0-2-1.5-3.1-3.9-3.1s-4,1.1-4,3.2s1.5,3.1,4,3.1C43.9,266.7,45.4,265.6,45.4,263.5
		z"/>
	<path class="st2" d="M42.1,250.9h4.8c0.1,0,0.1,0.1,0.1,0.1v2c0,0.1-0.1,0.1-0.1,0.1l-5.5-0.1l-5.5,0.1c-0.1,0-0.1-0.1-0.1-0.1
		v-2.7c0-0.1,0-0.2,0.1-0.2l7.9-4.5l-2.5,0.1h-5.3c-0.1,0-0.1-0.1-0.1-0.1v-2c0-0.1,0.1-0.1,0.1-0.1l5.5,0.1l5.5-0.1
		c0.1,0,0.1,0.1,0.1,0.1v2.8c0,0.1,0,0.2-0.1,0.2L39,251l0.4,0L42.1,250.9z"/>
	<path class="st2" d="M47,235.6c0,0.1-0.1,0.1-0.1,0.1l-5.5-0.1l-3.8,0.1v3.1c0,0.1-0.1,0.1-0.1,0.1h-1.5c-0.1,0-0.1-0.1-0.1-0.1
		v-8.7c0-0.1,0.1-0.1,0.1-0.1h1.5c0.1,0,0.1,0.1,0.1,0.1v3.1l3.8,0.1l5.5-0.1c0.1,0,0.1,0.1,0.1,0.1V235.6z"/>
	<path class="st2" d="M47,219c0,0.1-0.1,0.2-0.1,0.2l-2.7,0.9v4.2l2.7,0.8c0.1,0,0.1,0.1,0.1,0.2v2.2c0,0.1-0.1,0.1-0.1,0.1
		l-10.9-3.8c-0.1,0-0.1-0.1-0.1-0.2v-3c0-0.1,0.1-0.2,0.1-0.2l10.9-3.7c0.1,0,0.1,0,0.1,0.1V219z M42.2,220.7l-4.8,1.5l4.8,1.5
		V220.7z"/>
	<path class="st2" d="M47.2,207.5c0,3.4-2.4,5.6-5.8,5.6c-3.6,0-5.9-2.2-5.9-5.6c0-2.4,1-4.4,4-5c0.1,0,0.1,0,0.1,0.1v2.1
		c0,0.1-0.1,0.2-0.1,0.2c-1.3,0.3-2.1,1.2-2.1,2.7c0,2,1.5,3,4,3s3.9-1.1,3.9-3c0-1.6-0.8-2.4-2.4-2.7c-0.1,0-0.1-0.1-0.1-0.2v-2.1
		c0-0.1,0.1-0.1,0.1-0.1C46.1,203,47.2,204.9,47.2,207.5z"/>
	<path class="st2" d="M47,195.3c0,0.1-0.1,0.1-0.1,0.1l-5.5-0.1l-3.8,0.1v3.1c0,0.1-0.1,0.1-0.1,0.1h-1.5c-0.1,0-0.1-0.1-0.1-0.1
		v-8.7c0-0.1,0.1-0.1,0.1-0.1h1.5c0.1,0,0.1,0.1,0.1,0.1v3.1l3.8,0.1l5.5-0.1c0.1,0,0.1,0.1,0.1,0.1V195.3z"/>
	<path class="st2" d="M47.2,173.9c0,3-1.6,4.5-4.4,4.5l-3,0l-3.9,0.1c-0.1,0-0.1-0.1-0.1-0.1v-2.3c0-0.1,0.1-0.1,0.1-0.1l3.8,0h3.1
		c1.6,0,2.5-0.6,2.5-2.1c0-1.6-0.9-2.3-2.5-2.3h-3l-3.8,0c-0.1,0-0.1-0.1-0.1-0.1v-2c0-0.1,0.1-0.1,0.1-0.1l3.9,0h3
		C45.7,169.4,47.2,170.9,47.2,173.9z"/>
	<path class="st2" d="M47.3,159.8c0,2.9-1.2,5-3.9,5.1c-0.1,0-0.1-0.1-0.1-0.1v-2.3c0-0.1,0.1-0.1,0.1-0.2c1.2-0.2,2.1-0.7,2.1-2.6
		c0-1.5-0.4-2.3-1.5-2.3c-2.5,0-0.5,7.2-5,7.2c-2.1,0-3.4-1.6-3.4-4.5c0-2.6,1-4.4,3.4-4.8c0.1,0,0.1,0,0.1,0.1v2.3
		c0,0.1-0.1,0.1-0.1,0.2c-1,0.1-1.6,0.9-1.6,2.3c0,1.2,0.4,2,1.3,2c2.4,0,0.4-7.2,4.9-7.2C46,155,47.3,156.8,47.3,159.8z"/>
</g>
<g transform="translate(910 3207)">
	<path class="st3" d="M-886.6-3172.4l32.9,10.9"/>
	<path class="st3" d="M-886.6-3161.4l32.9,10.9"/>
</g>
</svg>
