<?xml version="1.0" encoding="utf-8"?>
<!-- Generator: Adobe Illustrator 23.0.1, SVG Export Plug-In . SVG Version: 6.00 Build 0)  -->
<svg version="1.1" id="Layer_1" xmlns="http://www.w3.org/2000/svg" xmlns:xlink="http://www.w3.org/1999/xlink" x="0px" y="0px"
	 viewBox="0 0 80 320.4" style="enable-background:new 0 0 80 320.4;" xml:space="preserve">
<style type="text/css">
	.st0{fill:#D11D2B;}
	.st1{fill:none;stroke:#E6CFAE;stroke-width:2;}
	.st2{enable-background:new    ;}
	.st3{fill:#E6CFAE;}
</style>
<g transform="translate(-1030 -2721.566)">
	<path class="st0" d="M1030,2721.6l80,25.4v295h-80V2721.6z"/>
	<g transform="translate(917 2001)">
		<path class="st1" d="M136.4,755.2l32.9,10.9"/>
		<path class="st1" d="M136.4,766.1l32.9,10.9"/>
	</g>
	<g class="st2">
		<path class="st3" d="M1077.2,3002.2c0,3.4-2.4,5.6-5.8,5.6c-3.6,0-5.9-2.2-5.9-5.6c0-2.4,1-4.4,4-5c0.1,0,0.1,0,0.1,0.1v2.1
			c0,0.1-0.1,0.2-0.1,0.2c-1.3,0.3-2.1,1.2-2.1,2.7c0,2,1.5,3,4,3s3.9-1.1,3.9-3c0-1.6-0.8-2.4-2.4-2.7c-0.1,0-0.1-0.1-0.1-0.2v-2.1
			c0-0.1,0.1-0.1,0.1-0.1C1076.1,2997.8,1077.2,2999.6,1077.2,3002.2z"/>
		<path class="st3" d="M1074.5,2987.4l-1.7,1.1v1.6l4,0c0.1,0,0.1,0.1,0.1,0.1v2.2c0,0.1-0.1,0.1-0.1,0.1l-5.5-0.1l-5.5,0.1
			c-0.1,0-0.1-0.1-0.1-0.1v-4.5c0-2.8,1.2-4.4,3.5-4.4c1.6,0,2.8,0.9,3.3,2.5l4.3-2.8c0.1,0,0.1,0,0.1,0.1v2.5c0,0.1,0,0.2-0.1,0.2
			L1074.5,2987.4z M1067.6,2987.7v2.3l3.5,0v-2.4c0-1-0.5-1.9-1.7-1.9C1068.1,2985.8,1067.6,2986.5,1067.6,2987.7z"/>
		<path class="st3" d="M1077,2978.5c0,0.1-0.1,0.1-0.1,0.1l-5.5-0.1l-5.5,0.1c-0.1,0-0.1-0.1-0.1-0.1v-7.6c0-0.1,0.1-0.1,0.1-0.1
			h1.5c0.1,0,0.1,0.1,0.1,0.1v5.2l2.6,0.1v-4.8c0-0.1,0.1-0.1,0.1-0.1h1.5c0.1,0,0.1,0.1,0.1,0.1v4.8l3.2-0.1v-5.3
			c0-0.1,0.1-0.1,0.1-0.1h1.5c0.1,0,0.1,0.1,0.1,0.1V2978.5z"/>
		<path class="st3" d="M1077,2965.9c0,0.1-0.1,0.1-0.1,0.1l-5.5-0.1l-5.5,0.1c-0.1,0-0.1-0.1-0.1-0.1v-4c0-3.2,1.7-5.9,5.7-5.9
			c4,0,5.5,2.8,5.5,5.9V2965.9z M1075.2,2963.6v-1.8c0-1.8-1.1-3.3-3.7-3.3s-3.9,1.4-3.9,3.3v1.7c0,0,1.9,0.1,3.7,0.1
			C1073.3,2963.7,1075.2,2963.6,1075.2,2963.6z"/>
		<path class="st3" d="M1077,2951.2c0,0.1-0.1,0.1-0.1,0.1l-5.5-0.1l-5.5,0.1c-0.1,0-0.1-0.1-0.1-0.1v-7.6c0-0.1,0.1-0.1,0.1-0.1
			h1.5c0.1,0,0.1,0.1,0.1,0.1v5.2l2.6,0.1v-4.8c0-0.1,0.1-0.1,0.1-0.1h1.5c0.1,0,0.1,0.1,0.1,0.1v4.8l3.2-0.1v-5.3
			c0-0.1,0.1-0.1,0.1-0.1h1.5c0.1,0,0.1,0.1,0.1,0.1V2951.2z"/>
		<path class="st3" d="M1072.1,2936.5h4.8c0.1,0,0.1,0.1,0.1,0.1v2c0,0.1-0.1,0.1-0.1,0.1l-5.5-0.1l-5.5,0.1c-0.1,0-0.1-0.1-0.1-0.1
			v-2.7c0-0.1,0-0.2,0.1-0.2l7.9-4.5l-2.5,0.1h-5.3c-0.1,0-0.1-0.1-0.1-0.1v-2c0-0.1,0.1-0.1,0.1-0.1l5.5,0.1l5.5-0.1
			c0.1,0,0.1,0.1,0.1,0.1v2.8c0,0.1,0,0.2-0.1,0.2l-7.9,4.4l0.4,0L1072.1,2936.5z"/>
		<path class="st3" d="M1077,2921.2c0,0.1-0.1,0.1-0.1,0.1l-5.5-0.1l-3.8,0.1v3.1c0,0.1-0.1,0.1-0.1,0.1h-1.5
			c-0.1,0-0.1-0.1-0.1-0.1v-8.7c0-0.1,0.1-0.1,0.1-0.1h1.5c0.1,0,0.1,0.1,0.1,0.1v3.1l3.8,0.1l5.5-0.1c0.1,0,0.1,0.1,0.1,0.1V2921.2
			z"/>
		<path class="st3" d="M1077,2910.8c0,0.1-0.1,0.1-0.1,0.1l-5.5-0.1l-5.5,0.1c-0.1,0-0.1-0.1-0.1-0.1v-2.2c0-0.1,0.1-0.1,0.1-0.1
			l5.5,0.1l5.5-0.1c0.1,0,0.1,0.1,0.1,0.1V2910.8z"/>
		<path class="st3" d="M1077,2895.6c0,0.1-0.1,0.2-0.1,0.2l-2.7,0.9v4.2l2.7,0.8c0.1,0,0.1,0.1,0.1,0.2v2.2c0,0.1-0.1,0.1-0.1,0.1
			l-10.9-3.8c-0.1,0-0.1-0.1-0.1-0.2v-3c0-0.1,0.1-0.2,0.1-0.2l10.9-3.7c0.1,0,0.1,0,0.1,0.1V2895.6z M1072.2,2897.2l-4.8,1.5
			l4.8,1.5V2897.2z"/>
		<path class="st3" d="M1077,2888.8c0,0.1-0.1,0.1-0.1,0.1l-5.5-0.1l-5.5,0.1c-0.1,0-0.1-0.1-0.1-0.1v-2.2c0-0.1,0.1-0.1,0.1-0.1
			l5.3,0.1l3.9-0.1v-4.5c0-0.1,0.1-0.1,0.1-0.1h1.5c0.1,0,0.1,0.1,0.1,0.1V2888.8z"/>
		<path class="st3" d="M1077.3,2872.9c0,2.9-1.2,5-3.9,5.1c-0.1,0-0.1-0.1-0.1-0.1v-2.3c0-0.1,0.1-0.1,0.1-0.2
			c1.2-0.2,2.1-0.7,2.1-2.6c0-1.5-0.4-2.3-1.5-2.3c-2.5,0-0.5,7.2-5,7.2c-2.1,0-3.4-1.6-3.4-4.5c0-2.6,1-4.4,3.4-4.8
			c0.1,0,0.1,0,0.1,0.1v2.3c0,0.1-0.1,0.1-0.1,0.2c-1,0.1-1.6,0.9-1.6,2.3c0,1.2,0.4,2,1.3,2c2.4,0,0.4-7.2,4.9-7.2
			C1076,2868.1,1077.3,2869.9,1077.3,2872.9z"/>
	</g>
</g>
</svg>
