<svg xmlns="http://www.w3.org/2000/svg" width="104.846" height="27.624" viewBox="0 0 104.846 27.624"><defs><style>.a{fill:#e6cfae;}</style></defs><path class="a" d="M278.307,83.3a11.269,11.269,0,0,1-.742,4.4,7.01,7.01,0,0,1-1.993,2.754,6.7,6.7,0,0,1-2.085,1.154H280.3l7.312-27.624h-9.308Z" transform="translate(-182.769 -63.979)"/><path class="a" d="M256.267,86.756a2.714,2.714,0,0,0,1.016,1.016,3.773,3.773,0,0,0,3.263,0,2.767,2.767,0,0,0,1-1.016,4.393,4.393,0,0,0,.508-1.524,12.686,12.686,0,0,0,.137-1.934V63.979h-6.565V83.3a12.579,12.579,0,0,0,.137,1.934A4.367,4.367,0,0,0,256.267,86.756Z" transform="translate(-172.275 -63.979)"/><path class="a" d="M67.828,63.979,75.14,91.6h-5.8L68.06,85.76H60.709L59.432,91.6h-5.8l7.312-27.624ZM67.093,81.2l-2.67-12.419h-.077L61.676,81.2Z" transform="translate(-53.629 -63.979)"/><path class="a" d="M114.607,68.544h-6.036V91.6H103V68.544H96.965V63.979h17.642Z" transform="translate(-79.084 -63.979)"/><path class="a" d="M151.105,63.979V74.541h6.5V63.979h5.571V91.6H157.6V79.338h-6.5V91.6h-5.571V63.979Z" transform="translate(-107.612 -63.979)"/><g transform="translate(61.237 0)"><path class="a" d="M202.038,73.76v8.115H204.4a4.639,4.639,0,0,0,3.152-.965,4.134,4.134,0,0,0,1.1-3.25q0-3.9-3.939-3.9Z" transform="translate(-202.038 -69.724)"/><path class="a" d="M218.116,63.979a6.957,6.957,0,0,1,3.688,1.652q1.969,1.793,1.97,5.456a8.485,8.485,0,0,1-1.143,4.629,5.29,5.29,0,0,1-3.546,2.3V78.1a5.142,5.142,0,0,1,3.112,1.379,5.844,5.844,0,0,1,1.221,3.427q.079.789.118,1.714t.079,2.068q.079,2.246.236,3.428a2.3,2.3,0,0,0,.85,1.487h7.921a6.619,6.619,0,0,1-1.923-1.017,6.506,6.506,0,0,1-1.993-2.715,11.877,11.877,0,0,1-.743-4.571V63.979Z" transform="translate(-211.482 -63.979)"/><path class="a" d="M208.735,113.513a15.077,15.077,0,0,1-.157-1.6l-.158-5.4a4.443,4.443,0,0,0-.827-2.6,3.031,3.031,0,0,0-2.522-.946h-3.034v11.533h7.046A3.091,3.091,0,0,1,208.735,113.513Z" transform="translate(-202.038 -86.884)"/></g></svg>