<svg xmlns="http://www.w3.org/2000/svg" width="172.964" height="83.995" viewBox="0 0 172.964 83.995"><defs><style>.a{fill:#c03334;}.b{fill:#abaeb3;}.c{fill:#202534;opacity:0.5;}</style></defs><circle class="a" cx="18.001" cy="18.001" r="18.001" transform="translate(0 47.992)"/><circle class="b" cx="28.254" cy="28.254" r="28.254" transform="translate(35.387 27.488)"/><path class="c" d="M-333.708,1497.726a41.878,41.878,0,0,1-41.831-41.831,41.879,41.879,0,0,1,41.831-41.831,41.879,41.879,0,0,1,41.831,41.831A41.879,41.879,0,0,1-333.708,1497.726Zm0-80.548a38.761,38.761,0,0,0-38.717,38.718,38.761,38.761,0,0,0,38.717,38.717,38.761,38.761,0,0,0,38.718-38.717A38.762,38.762,0,0,0-333.708,1417.177Z" transform="translate(464.841 -1414.064)"/></svg>