<svg xmlns="http://www.w3.org/2000/svg" width="57.793" height="53.27" viewBox="0 0 57.793 53.27"><circle cx="9.482" cy="9.482" r="9.482" transform="translate(0 34.305)" fill="#c03334"/><circle cx="14.883" cy="14.883" r="14.883" transform="translate(28.027)" fill="#d8dadc" opacity="0.3"/><path d="M-425.51,202.645a21.786,21.786,0,0,1-21.761-21.761,21.786,21.786,0,0,1,21.761-21.762,21.787,21.787,0,0,1,21.762,21.762A21.786,21.786,0,0,1-425.51,202.645Zm0-42.43a20.692,20.692,0,0,0-20.668,20.668,20.692,20.692,0,0,0,20.668,20.668,20.692,20.692,0,0,0,20.669-20.668A20.692,20.692,0,0,0-425.51,160.215Z" transform="translate(456.207 -152.95)" fill="#fff"/></svg>