<svg xmlns="http://www.w3.org/2000/svg" width="58.776" height="55.609" viewBox="0 0 58.776 55.609"><g transform="translate(0)"><circle cx="9.482" cy="9.482" r="9.482" transform="translate(39.811)" fill="#c03334"/><circle cx="14.883" cy="14.883" r="14.883" transform="translate(6.879 18.965)" fill="#d8dadc" opacity="0.3"/><path d="M-443.254,749.675a21.787,21.787,0,0,1-21.762-21.762,21.787,21.787,0,0,1,21.762-21.761,21.787,21.787,0,0,1,21.762,21.761A21.787,21.787,0,0,1-443.254,749.675Zm0-42.43a20.692,20.692,0,0,0-20.668,20.668,20.692,20.692,0,0,0,20.668,20.668,20.692,20.692,0,0,0,20.669-20.668A20.692,20.692,0,0,0-443.254,707.245Z" transform="translate(465.016 -694.066)" fill="#fff"/></g></svg>