<svg xmlns="http://www.w3.org/2000/svg" width="90.838" height="43.972" viewBox="0 0 90.838 43.972"><circle cx="9.482" cy="9.482" r="9.482" transform="translate(0 25.007)" fill="#c03334"/><circle cx="14.883" cy="14.883" r="14.883" transform="translate(18.64 14.206)" fill="#d8dadc" opacity="0.3"/><path d="M-385.03,462.584a21.786,21.786,0,0,1-21.761-21.761,21.786,21.786,0,0,1,21.761-21.762,21.787,21.787,0,0,1,21.762,21.762A21.786,21.786,0,0,1-385.03,462.584Zm0-42.43A20.692,20.692,0,0,0-405.7,440.823a20.692,20.692,0,0,0,20.668,20.668,20.692,20.692,0,0,0,20.668-20.668A20.692,20.692,0,0,0-385.03,420.154Z" transform="translate(454.106 -419.061)" fill="#fff"/></svg>