<svg xmlns="http://www.w3.org/2000/svg" width="109.713" height="101.127" viewBox="0 0 109.713 101.127"><circle cx="18.001" cy="18.001" r="18.001" transform="translate(0 65.125)" fill="#c03334"/><circle cx="28.254" cy="28.254" r="28.254" transform="translate(53.206)" fill="#abaeb3"/><path d="M-414.668,1193.7a41.878,41.878,0,0,1-41.831-41.831,41.878,41.878,0,0,1,41.831-41.831,41.878,41.878,0,0,1,41.831,41.831A41.878,41.878,0,0,1-414.668,1193.7Zm0-80.548a38.761,38.761,0,0,0-38.717,38.717,38.761,38.761,0,0,0,38.717,38.717,38.761,38.761,0,0,0,38.718-38.717A38.761,38.761,0,0,0-414.668,1113.149Z" transform="translate(472.944 -1098.837)" fill="#202534" opacity="0.5"/></svg>