<svg xmlns="http://www.w3.org/2000/svg" width="146.068" height="38.484" viewBox="0 0 146.068 38.484"><defs><style>.a{fill:#434e6e;}</style></defs><g transform="translate(-53.629 -63.979)"><path class="a" d="M280.2,90.895a15.7,15.7,0,0,1-1.034,6.124,9.766,9.766,0,0,1-2.776,3.837,9.336,9.336,0,0,1-2.9,1.607h9.5L293.17,63.979H280.2Z" transform="translate(-93.473 0)"/><path class="a" d="M256.521,95.712a3.78,3.78,0,0,0,1.415,1.416,5.257,5.257,0,0,0,4.546,0,3.855,3.855,0,0,0,1.388-1.416,6.12,6.12,0,0,0,.708-2.123,17.671,17.671,0,0,0,.19-2.694V63.979h-9.146V90.895a17.521,17.521,0,0,0,.191,2.694A6.084,6.084,0,0,0,256.521,95.712Z" transform="translate(-85.878 0)"/><path class="a" d="M73.41,63.979,83.6,102.463H75.512l-1.779-8.139H63.493l-1.779,8.139H53.629L63.816,63.979ZM72.386,87.965l-3.719-17.3H68.56l-3.719,17.3Z" transform="translate(0 0)"/><path class="a" d="M121.543,70.339h-8.409v32.124h-7.761V70.339H96.965v-6.36h24.578Z" transform="translate(-18.424 0)"/><path class="a" d="M153.3,63.979V78.693h9.055V63.979h7.762v38.484h-7.762V85.377H153.3v17.086h-7.762V63.979Z" transform="translate(-39.074 0)"/><g transform="translate(138.942 63.979)"><path class="a" d="M202.038,73.76V85.066h3.293a6.463,6.463,0,0,0,4.391-1.344q1.536-1.344,1.537-4.528,0-5.434-5.488-5.433Z" transform="translate(-202.038 -68.137)"/><path class="a" d="M218.116,63.979a9.692,9.692,0,0,1,5.137,2.3q2.744,2.5,2.744,7.6a11.821,11.821,0,0,1-1.592,6.449,7.369,7.369,0,0,1-4.94,3.211v.109a7.164,7.164,0,0,1,4.336,1.921,8.142,8.142,0,0,1,1.7,4.775q.109,1.1.165,2.387t.11,2.881q.109,3.129.329,4.775a3.2,3.2,0,0,0,1.184,2.072h11.035a9.221,9.221,0,0,1-2.679-1.417,9.063,9.063,0,0,1-2.776-3.783,16.545,16.545,0,0,1-1.035-6.369V63.979Z" transform="translate(-208.874 -63.979)"/><path class="a" d="M211.368,117.657a21.005,21.005,0,0,1-.219-2.224l-.22-7.518a6.189,6.189,0,0,0-1.152-3.622,4.223,4.223,0,0,0-3.513-1.318h-4.226v16.068h9.816A4.307,4.307,0,0,1,211.368,117.657Z" transform="translate(-202.038 -80.558)"/></g></g></svg>