<?xml version="1.0" encoding="utf-8"?>
<!-- Generator: Adobe Illustrator 23.0.3, SVG Export Plug-In . SVG Version: 6.00 Build 0)  -->
<svg version="1.1" id="Layer_1" xmlns="http://www.w3.org/2000/svg" xmlns:xlink="http://www.w3.org/1999/xlink" x="0px" y="0px"
	 viewBox="0 0 80 320.4" style="enable-background:new 0 0 80 320.4;" xml:space="preserve">
<style type="text/css">
	.st0{fill:#D11D2B;}
	.st1{enable-background:new    ;}
	.st2{fill:#E6CFAE;}
	.st3{fill:none;stroke:#E6CFAE;stroke-width:2;}
</style>
<g transform="translate(-1030 -2673.566)">
	<path class="st0" d="M1030,2673.6l80,25.4v295h-80V2673.6z"/>
	<g class="st1">
		<path class="st2" d="M1077.2,2954.1c0,3.4-2.4,5.7-5.8,5.7c-3.6,0-5.9-2.2-5.9-5.7c0-3.4,2.3-5.7,5.9-5.7
			C1074.9,2948.5,1077.2,2950.7,1077.2,2954.1z M1075.4,2954.1c0-2-1.5-3.1-3.9-3.1s-4,1.1-4,3.2s1.5,3.1,4,3.1
			C1073.9,2957.3,1075.4,2956.1,1075.4,2954.1z"/>
		<path class="st2" d="M1077.2,2939.3c0,3-1.6,4.5-4.4,4.5l-3,0l-3.9,0.1c-0.1,0-0.1-0.1-0.1-0.1v-2.3c0-0.1,0.1-0.1,0.1-0.1l3.8,0
			h3.1c1.6,0,2.5-0.6,2.5-2.1c0-1.6-0.9-2.3-2.5-2.3h-3l-3.8,0c-0.1,0-0.1-0.1-0.1-0.1v-2c0-0.1,0.1-0.1,0.1-0.1l3.9,0h3
			C1075.7,2934.8,1077.2,2936.3,1077.2,2939.3z"/>
		<path class="st2" d="M1074.5,2924.8l-1.7,1.1v1.6l4,0c0.1,0,0.1,0.1,0.1,0.1v2.2c0,0.1-0.1,0.1-0.1,0.1l-5.5-0.1l-5.5,0.1
			c-0.1,0-0.1-0.1-0.1-0.1v-4.5c0-2.8,1.2-4.4,3.5-4.4c1.6,0,2.8,0.9,3.3,2.5l4.3-2.8c0.1,0,0.1,0,0.1,0.1v2.5c0,0.1,0,0.2-0.1,0.2
			L1074.5,2924.8z M1067.6,2925.2v2.3l3.5,0v-2.4c0-1-0.5-1.9-1.7-1.9C1068.1,2923.2,1067.6,2923.9,1067.6,2925.2z"/>
		<path class="st2" d="M1077,2906.4c0,0.1-0.1,0.1-0.1,0.1l-5.5-0.1l-3.8,0.1v3.1c0,0.1-0.1,0.1-0.1,0.1h-1.5
			c-0.1,0-0.1-0.1-0.1-0.1v-8.7c0-0.1,0.1-0.1,0.1-0.1h1.5c0.1,0,0.1,0.1,0.1,0.1v3.1l3.8,0.1l5.5-0.1c0.1,0,0.1,0.1,0.1,0.1V2906.4
			z"/>
		<path class="st2" d="M1077,2896.1c0,0.1-0.1,0.1-0.1,0.1l-5.5-0.1l-5.5,0.1c-0.1,0-0.1-0.1-0.1-0.1v-7.6c0-0.1,0.1-0.1,0.1-0.1
			h1.5c0.1,0,0.1,0.1,0.1,0.1v5.2l2.6,0.1v-4.8c0-0.1,0.1-0.1,0.1-0.1h1.5c0.1,0,0.1,0.1,0.1,0.1v4.8l3.2-0.1v-5.3
			c0-0.1,0.1-0.1,0.1-0.1h1.5c0.1,0,0.1,0.1,0.1,0.1V2896.1z"/>
		<path class="st2" d="M1077,2875.4c0,0.1-0.1,0.2-0.1,0.2l-2.7,0.9v4.2l2.7,0.8c0.1,0,0.1,0.1,0.1,0.2v2.2c0,0.1-0.1,0.1-0.1,0.1
			l-10.9-3.8c-0.1,0-0.1-0.1-0.1-0.2v-3c0-0.1,0.1-0.2,0.1-0.2l10.9-3.7c0.1,0,0.1,0,0.1,0.1V2875.4z M1072.2,2877.1l-4.8,1.5
			l4.8,1.5V2877.1z"/>
		<path class="st2" d="M1072.3,2866.6h4.6c0.1,0,0.1,0.1,0.1,0.1v1.9c0,0.1-0.1,0.1-0.1,0.1l-5.5-0.1l-5.5,0.1
			c-0.1,0-0.1-0.1-0.1-0.1v-3c0-0.1,0.1-0.2,0.1-0.2l8.1-3l-8.1-2.8c-0.1,0-0.1-0.1-0.1-0.2v-2.8c0-0.1,0.1-0.1,0.1-0.1l5.5,0.1
			l5.5-0.1c0.1,0,0.1,0.1,0.1,0.1v2.2c0,0.1-0.1,0.1-0.1,0.1h-4.6l-2.6-0.1l-0.5,0l7.8,2.7c0.1,0,0.1,0.1,0.1,0.2v1.6
			c0,0.1-0.1,0.2-0.1,0.2l-8.1,3l0.8,0L1072.3,2866.6z"/>
	</g>
	<g transform="translate(917.615 1953)">
		<path class="st3" d="M136.4,755.2l32.9,10.9"/>
		<path class="st3" d="M136.4,766.1l32.9,10.9"/>
	</g>
</g>
</svg>
