<svg xmlns="http://www.w3.org/2000/svg" width="37.966" height="27.707" viewBox="0 0 37.966 27.707">
  <g id="Group_107" data-name="Group 107" transform="translate(-126.61 -269.755)">
    <g id="Group_105" data-name="Group 105" transform="translate(126.61 269.755)">
      <path id="Path_74" data-name="Path 74" d="M133.98,288a28.546,28.546,0,0,1-2.775-1.185,9.048,9.048,0,0,1-4.47-9.308,9.151,9.151,0,0,1,18.049-.2,14.47,14.47,0,0,1-.092,5.527c-1.387,7.57-9.259,13.489-12.856,14.561a1.881,1.881,0,0,1-2.1-.819,1.911,1.911,0,0,1,.132-2.283C130.638,293.283,132.957,290.8,133.98,288Z" transform="translate(-126.61 -269.755)" fill="#fff"/>
    </g>
    <g id="Group_106" data-name="Group 106" transform="translate(146.175 269.755)">
      <path id="Path_75" data-name="Path 75" d="M313.37,288a28.525,28.525,0,0,1-2.775-1.185,9.048,9.048,0,0,1-4.47-9.308,9.151,9.151,0,0,1,18.049-.2,14.471,14.471,0,0,1-.092,5.527c-1.387,7.57-9.258,13.489-12.856,14.561a1.881,1.881,0,0,1-2.1-.819,1.911,1.911,0,0,1,.132-2.283C310.029,293.283,312.347,290.8,313.37,288Z" transform="translate(-306 -269.755)" fill="#fff"/>
    </g>
  </g>
</svg>
