<?xml version="1.0" encoding="utf-8"?>
<!-- Generator: Adobe Illustrator 23.0.1, SVG Export Plug-In . SVG Version: 6.00 Build 0)  -->
<svg version="1.1" id="Layer_1" xmlns="http://www.w3.org/2000/svg" xmlns:xlink="http://www.w3.org/1999/xlink" x="0px" y="0px"
	 viewBox="0 0 80 320.4" style="enable-background:new 0 0 80 320.4;" xml:space="preserve">
<style type="text/css">
	.st0{fill:#D11D2B;}
	.st1{enable-background:new    ;}
	.st2{fill:#E6CFAE;}
	.st3{fill:none;stroke:#E6CFAE;stroke-width:2;}
</style>
<g transform="translate(-169 -840.566)">
	<path class="st0" d="M169,840.6l80,25.4v295h-80V840.6z"/>
	<g class="st1">
		<path class="st2" d="M216.2,1119.1c0,3.4-2.4,5.7-5.8,5.7c-3.6,0-5.9-2.2-5.9-5.7c0-3.4,2.3-5.7,5.9-5.7
			C213.9,1113.5,216.2,1115.7,216.2,1119.1z M214.4,1119.1c0-2-1.5-3.1-3.9-3.1s-4,1.1-4,3.2s1.5,3.1,4,3.1
			C212.9,1122.3,214.4,1121.1,214.4,1119.1z"/>
		<path class="st2" d="M216.2,1104.3c0,3-1.6,4.5-4.4,4.5l-3,0l-3.9,0.1c-0.1,0-0.1-0.1-0.1-0.1v-2.3c0-0.1,0.1-0.1,0.1-0.1l3.8,0
			h3.1c1.6,0,2.5-0.6,2.5-2.1c0-1.6-0.9-2.3-2.5-2.3h-3l-3.8,0c-0.1,0-0.1-0.1-0.1-0.1v-2c0-0.1,0.1-0.1,0.1-0.1l3.9,0h3
			C214.7,1099.8,216.2,1101.3,216.2,1104.3z"/>
		<path class="st2" d="M213.5,1089.8l-1.7,1.1v1.6l4,0c0.1,0,0.1,0.1,0.1,0.1v2.2c0,0.1-0.1,0.1-0.1,0.1l-5.5-0.1l-5.5,0.1
			c-0.1,0-0.1-0.1-0.1-0.1v-4.5c0-2.8,1.2-4.4,3.5-4.4c1.6,0,2.8,0.9,3.3,2.5l4.3-2.8c0.1,0,0.1,0,0.1,0.1v2.5c0,0.1,0,0.2-0.1,0.2
			L213.5,1089.8z M206.6,1090.2v2.3l3.5,0v-2.4c0-1-0.5-1.9-1.7-1.9C207.1,1088.2,206.6,1088.9,206.6,1090.2z"/>
		<path class="st2" d="M211.3,1071.8h4.6c0.1,0,0.1,0.1,0.1,0.1v1.9c0,0.1-0.1,0.1-0.1,0.1l-5.5-0.1l-5.5,0.1
			c-0.1,0-0.1-0.1-0.1-0.1v-3c0-0.1,0.1-0.2,0.1-0.2l8.1-3l-8.1-2.8c-0.1,0-0.1-0.1-0.1-0.2v-2.8c0-0.1,0.1-0.1,0.1-0.1l5.5,0.1
			l5.5-0.1c0.1,0,0.1,0.1,0.1,0.1v2.2c0,0.1-0.1,0.1-0.1,0.1h-4.6l-2.6-0.1l-0.5,0l7.8,2.7c0.1,0,0.1,0.1,0.1,0.2v1.6
			c0,0.1-0.1,0.2-0.1,0.2l-8.1,3l0.8,0L211.3,1071.8z"/>
		<path class="st2" d="M216,1056.7c0,0.1-0.1,0.1-0.1,0.1l-5.5-0.1l-5.5,0.1c-0.1,0-0.1-0.1-0.1-0.1v-2.2c0-0.1,0.1-0.1,0.1-0.1
			l5.5,0.1l5.5-0.1c0.1,0,0.1,0.1,0.1,0.1V1056.7z"/>
		<path class="st2" d="M216.3,1044.6c0,2.9-1.2,5-3.9,5.1c-0.1,0-0.1-0.1-0.1-0.1v-2.3c0-0.1,0.1-0.1,0.1-0.2
			c1.2-0.2,2.1-0.7,2.1-2.6c0-1.5-0.4-2.3-1.5-2.3c-2.5,0-0.5,7.2-5,7.2c-2.1,0-3.4-1.6-3.4-4.5c0-2.6,1-4.4,3.4-4.8
			c0.1,0,0.1,0,0.1,0.1v2.3c0,0.1-0.1,0.1-0.1,0.2c-1,0.1-1.6,0.9-1.6,2.3c0,1.2,0.4,2,1.3,2c2.4,0,0.4-7.2,4.9-7.2
			C215,1039.9,216.3,1041.7,216.3,1044.6z"/>
		<path class="st2" d="M216.3,1030.5c0,2.9-1.2,5-3.9,5.1c-0.1,0-0.1-0.1-0.1-0.1v-2.3c0-0.1,0.1-0.1,0.1-0.2
			c1.2-0.2,2.1-0.7,2.1-2.6c0-1.5-0.4-2.3-1.5-2.3c-2.5,0-0.5,7.2-5,7.2c-2.1,0-3.4-1.6-3.4-4.5c0-2.6,1-4.4,3.4-4.8
			c0.1,0,0.1,0,0.1,0.1v2.3c0,0.1-0.1,0.1-0.1,0.2c-1,0.1-1.6,0.9-1.6,2.3c0,1.2,0.4,2,1.3,2c2.4,0,0.4-7.2,4.9-7.2
			C215,1025.8,216.3,1027.6,216.3,1030.5z"/>
		<path class="st2" d="M216,1021c0,0.1-0.1,0.1-0.1,0.1l-5.5-0.1l-5.5,0.1c-0.1,0-0.1-0.1-0.1-0.1v-2.2c0-0.1,0.1-0.1,0.1-0.1
			l5.5,0.1l5.5-0.1c0.1,0,0.1,0.1,0.1,0.1V1021z"/>
		<path class="st2" d="M216.2,1008.3c0,3.4-2.4,5.7-5.8,5.7c-3.6,0-5.9-2.2-5.9-5.7c0-3.4,2.3-5.7,5.9-5.7
			C213.9,1002.6,216.2,1004.8,216.2,1008.3z M214.4,1008.2c0-2-1.5-3.1-3.9-3.1s-4,1.1-4,3.2s1.5,3.1,4,3.1
			C212.9,1011.4,214.4,1010.3,214.4,1008.2z"/>
		<path class="st2" d="M211.1,995.7h4.8c0.1,0,0.1,0.1,0.1,0.1v2c0,0.1-0.1,0.1-0.1,0.1l-5.5-0.1l-5.5,0.1c-0.1,0-0.1-0.1-0.1-0.1
			v-2.7c0-0.1,0-0.2,0.1-0.2l7.9-4.5l-2.5,0.1h-5.3c-0.1,0-0.1-0.1-0.1-0.1v-2c0-0.1,0.1-0.1,0.1-0.1l5.5,0.1l5.5-0.1
			c0.1,0,0.1,0.1,0.1,0.1v2.8c0,0.1,0,0.2-0.1,0.2l-7.9,4.4l0.4,0L211.1,995.7z"/>
	</g>
	<g transform="translate(56 120)">
		<path class="st3" d="M136.4,755.2l32.9,10.9"/>
		<path class="st3" d="M136.4,766.1l32.9,10.9"/>
	</g>
</g>
</svg>
