<?xml version="1.0" encoding="utf-8"?>
<!-- Generator: Adobe Illustrator 23.0.1, SVG Export Plug-In . SVG Version: 6.00 Build 0)  -->
<svg version="1.1" id="Layer_1" xmlns="http://www.w3.org/2000/svg" xmlns:xlink="http://www.w3.org/1999/xlink" x="0px" y="0px"
	 viewBox="0 0 80 320.4" style="enable-background:new 0 0 80 320.4;" xml:space="preserve">
<style type="text/css">
	.st0{fill:#D11D2B;}
	.st1{enable-background:new    ;}
	.st2{fill:#E6CFAE;}
	.st3{fill:none;stroke:#E6CFAE;stroke-width:2;}
</style>
<g transform="translate(-169 -2211.566)">
	<path class="st0" d="M169,2211.6l80,25.4v295h-80V2211.6z"/>
	<g class="st1">
		<path class="st2" d="M216,2486.8c0,0.1-0.1,0.2-0.1,0.2l-7.7,1.8l7.7,1.6c0.1,0,0.1,0.1,0.1,0.2v2.7c0,0.1-0.1,0.2-0.1,0.2
			l-10.9,2.6c-0.1,0-0.1,0-0.1-0.1v-2.2c0-0.1,0.1-0.2,0.1-0.2l8.5-1.8l-8.5-1.7c-0.1,0-0.1-0.1-0.1-0.2v-2.5c0-0.1,0.1-0.2,0.1-0.2
			l8.6-1.8l-8.6-1.7c-0.1,0-0.1-0.1-0.1-0.2v-2c0-0.1,0.1-0.1,0.1-0.1l10.9,2.6c0.1,0,0.1,0.1,0.1,0.2V2486.8z"/>
		<path class="st2" d="M216,2469.5c0,0.1-0.1,0.1-0.1,0.1l-4.9-0.1v4.9l4.9-0.1c0.1,0,0.1,0.1,0.1,0.1v2.2c0,0.1-0.1,0.1-0.1,0.1
			l-5.5-0.1l-5.5,0.1c-0.1,0-0.1-0.1-0.1-0.1v-2.2c0-0.1,0.1-0.1,0.1-0.1l4.2,0v-4.9l-4.2,0c-0.1,0-0.1-0.1-0.1-0.1v-2.2
			c0-0.1,0.1-0.1,0.1-0.1l5.5,0.1l5.5-0.1c0.1,0,0.1,0.1,0.1,0.1V2469.5z"/>
		<path class="st2" d="M216.2,2456.9c0,3.4-2.4,5.7-5.8,5.7c-3.6,0-5.9-2.2-5.9-5.7c0-3.4,2.3-5.7,5.9-5.7
			C213.9,2451.2,216.2,2453.4,216.2,2456.9z M214.4,2456.8c0-2-1.5-3.1-3.9-3.1s-4,1.1-4,3.2s1.5,3.1,4,3.1
			C212.9,2460,214.4,2458.9,214.4,2456.8z"/>
		<path class="st2" d="M216,2431c0,0.1-0.1,0.2-0.1,0.2l-7.7,1.8l7.7,1.6c0.1,0,0.1,0.1,0.1,0.2v2.7c0,0.1-0.1,0.2-0.1,0.2
			l-10.9,2.6c-0.1,0-0.1,0-0.1-0.1v-2.2c0-0.1,0.1-0.2,0.1-0.2l8.5-1.8l-8.5-1.7c-0.1,0-0.1-0.1-0.1-0.2v-2.5c0-0.1,0.1-0.2,0.1-0.2
			l8.6-1.8l-8.6-1.7c-0.1,0-0.1-0.1-0.1-0.2v-2c0-0.1,0.1-0.1,0.1-0.1l10.9,2.6c0.1,0,0.1,0.1,0.1,0.2V2431z"/>
		<path class="st2" d="M216,2421c0,0.1-0.1,0.1-0.1,0.1l-5.5-0.1l-5.5,0.1c-0.1,0-0.1-0.1-0.1-0.1v-7.6c0-0.1,0.1-0.1,0.1-0.1h1.5
			c0.1,0,0.1,0.1,0.1,0.1v5.2l2.6,0.1v-4.8c0-0.1,0.1-0.1,0.1-0.1h1.5c0.1,0,0.1,0.1,0.1,0.1v4.8l3.2-0.1v-5.3
			c0-0.1,0.1-0.1,0.1-0.1h1.5c0.1,0,0.1,0.1,0.1,0.1V2421z"/>
		<path class="st2" d="M216,2393.8c0,0.1-0.1,0.2-0.1,0.2l-2.7,0.9v4.2l2.7,0.8c0.1,0,0.1,0.1,0.1,0.2v2.2c0,0.1-0.1,0.1-0.1,0.1
			l-10.9-3.8c-0.1,0-0.1-0.1-0.1-0.2v-3c0-0.1,0.1-0.2,0.1-0.2l10.9-3.7c0.1,0,0.1,0,0.1,0.1V2393.8z M211.2,2395.4l-4.8,1.5
			l4.8,1.5V2395.4z"/>
		<path class="st2" d="M213.5,2382l-1.7,1.1v1.6l4,0c0.1,0,0.1,0.1,0.1,0.1v2.2c0,0.1-0.1,0.1-0.1,0.1l-5.5-0.1l-5.5,0.1
			c-0.1,0-0.1-0.1-0.1-0.1v-4.5c0-2.8,1.2-4.4,3.5-4.4c1.6,0,2.8,0.9,3.3,2.5l4.3-2.8c0.1,0,0.1,0,0.1,0.1v2.5c0,0.1,0,0.2-0.1,0.2
			L213.5,2382z M206.6,2382.4v2.3l3.5,0v-2.4c0-1-0.5-1.9-1.7-1.9C207.1,2380.4,206.6,2381.1,206.6,2382.4z"/>
		<path class="st2" d="M216,2373.2c0,0.1-0.1,0.1-0.1,0.1l-5.5-0.1l-5.5,0.1c-0.1,0-0.1-0.1-0.1-0.1v-7.6c0-0.1,0.1-0.1,0.1-0.1h1.5
			c0.1,0,0.1,0.1,0.1,0.1v5.2l2.6,0.1v-4.8c0-0.1,0.1-0.1,0.1-0.1h1.5c0.1,0,0.1,0.1,0.1,0.1v4.8l3.2-0.1v-5.3
			c0-0.1,0.1-0.1,0.1-0.1h1.5c0.1,0,0.1,0.1,0.1,0.1V2373.2z"/>
	</g>
	<g transform="translate(56 1491)">
		<path class="st3" d="M136.4,755.2l32.9,10.9"/>
		<path class="st3" d="M136.4,766.1l32.9,10.9"/>
	</g>
</g>
</svg>
