<?xml version="1.0" encoding="utf-8"?>
<!-- Generator: Adobe Illustrator 23.0.1, SVG Export Plug-In . SVG Version: 6.00 Build 0)  -->
<svg version="1.1" id="Layer_1" xmlns="http://www.w3.org/2000/svg" xmlns:xlink="http://www.w3.org/1999/xlink" x="0px" y="0px"
	 viewBox="0 0 80 320.4" style="enable-background:new 0 0 80 320.4;" xml:space="preserve">
<style type="text/css">
	.st0{fill:#D11D2B;}
	.st1{fill:none;stroke:#E6CFAE;stroke-width:2;}
	.st2{enable-background:new    ;}
	.st3{fill:#E6CFAE;}
</style>
<g transform="translate(-1030 -1309.566)">
	<path class="st0" d="M1030,1309.6l80,25.4v295h-80V1309.6z"/>
	<g transform="translate(917 589)">
		<path class="st1" d="M136.4,755.2l32.9,10.9"/>
		<path class="st1" d="M136.4,766.1l32.9,10.9"/>
	</g>
	<g class="st2">
		<path class="st3" d="M1077,1586.8c0,0.1-0.1,0.2-0.1,0.2l-7.7,1.8l7.7,1.6c0.1,0,0.1,0.1,0.1,0.2v2.7c0,0.1-0.1,0.2-0.1,0.2
			l-10.9,2.6c-0.1,0-0.1,0-0.1-0.1v-2.2c0-0.1,0.1-0.2,0.1-0.2l8.5-1.8l-8.5-1.7c-0.1,0-0.1-0.1-0.1-0.2v-2.5c0-0.1,0.1-0.2,0.1-0.2
			l8.6-1.8l-8.6-1.7c-0.1,0-0.1-0.1-0.1-0.2v-2c0-0.1,0.1-0.1,0.1-0.1l10.9,2.6c0.1,0,0.1,0.1,0.1,0.2V1586.8z"/>
		<path class="st3" d="M1077,1569.5c0,0.1-0.1,0.1-0.1,0.1l-4.9-0.1v4.9l4.9-0.1c0.1,0,0.1,0.1,0.1,0.1v2.2c0,0.1-0.1,0.1-0.1,0.1
			l-5.5-0.1l-5.5,0.1c-0.1,0-0.1-0.1-0.1-0.1v-2.2c0-0.1,0.1-0.1,0.1-0.1l4.2,0v-4.9l-4.2,0c-0.1,0-0.1-0.1-0.1-0.1v-2.2
			c0-0.1,0.1-0.1,0.1-0.1l5.5,0.1l5.5-0.1c0.1,0,0.1,0.1,0.1,0.1V1569.5z"/>
		<path class="st3" d="M1077,1554.3c0,0.1-0.1,0.2-0.1,0.2l-2.7,0.9v4.2l2.7,0.8c0.1,0,0.1,0.1,0.1,0.2v2.2c0,0.1-0.1,0.1-0.1,0.1
			l-10.9-3.8c-0.1,0-0.1-0.1-0.1-0.2v-3c0-0.1,0.1-0.2,0.1-0.2l10.9-3.7c0.1,0,0.1,0,0.1,0.1V1554.3z M1072.2,1556l-4.8,1.5l4.8,1.5
			V1556z"/>
		<path class="st3" d="M1077,1546.1c0,0.1-0.1,0.1-0.1,0.1l-5.5-0.1l-3.8,0.1v3.1c0,0.1-0.1,0.1-0.1,0.1h-1.5
			c-0.1,0-0.1-0.1-0.1-0.1v-8.7c0-0.1,0.1-0.1,0.1-0.1h1.5c0.1,0,0.1,0.1,0.1,0.1v3.1l3.8,0.1l5.5-0.1c0.1,0,0.1,0.1,0.1,0.1V1546.1
			z"/>
		<path class="st3" d="M1077,1520.6c0,0.1-0.1,0.2-0.1,0.2l-7.7,1.8l7.7,1.6c0.1,0,0.1,0.1,0.1,0.2v2.7c0,0.1-0.1,0.2-0.1,0.2
			l-10.9,2.6c-0.1,0-0.1,0-0.1-0.1v-2.2c0-0.1,0.1-0.2,0.1-0.2l8.5-1.8l-8.5-1.7c-0.1,0-0.1-0.1-0.1-0.2v-2.5c0-0.1,0.1-0.2,0.1-0.2
			l8.6-1.8l-8.6-1.7c-0.1,0-0.1-0.1-0.1-0.2v-2c0-0.1,0.1-0.1,0.1-0.1l10.9,2.6c0.1,0,0.1,0.1,0.1,0.2V1520.6z"/>
		<path class="st3" d="M1077,1510.6c0,0.1-0.1,0.1-0.1,0.1l-5.5-0.1l-5.5,0.1c-0.1,0-0.1-0.1-0.1-0.1v-7.6c0-0.1,0.1-0.1,0.1-0.1
			h1.5c0.1,0,0.1,0.1,0.1,0.1v5.2l2.6,0.1v-4.8c0-0.1,0.1-0.1,0.1-0.1h1.5c0.1,0,0.1,0.1,0.1,0.1v4.8l3.2-0.1v-5.3
			c0-0.1,0.1-0.1,0.1-0.1h1.5c0.1,0,0.1,0.1,0.1,0.1V1510.6z"/>
		<path class="st3" d="M1077.2,1485.8c0,3.4-2.4,5.7-5.8,5.7c-3.6,0-5.9-2.2-5.9-5.7c0-3.4,2.3-5.7,5.9-5.7
			C1074.9,1480.1,1077.2,1482.4,1077.2,1485.8z M1075.4,1485.8c0-2-1.5-3.1-3.9-3.1s-4,1.1-4,3.2s1.5,3.1,4,3.1
			C1073.9,1488.9,1075.4,1487.8,1075.4,1485.8z"/>
		<path class="st3" d="M1077,1475.3c0,0.1-0.1,0.1-0.1,0.1l-5.5-0.1l-5.5,0.1c-0.1,0-0.1-0.1-0.1-0.1v-7.3c0-0.1,0.1-0.1,0.1-0.1
			h1.5c0.1,0,0.1,0.1,0.1,0.1v5l3.1,0.1v-4.8c0-0.1,0.1-0.1,0.1-0.1h1.5c0.1,0,0.1,0.1,0.1,0.1v4.8l4.4-0.1c0.1,0,0.1,0.1,0.1,0.1
			V1475.3z"/>
		<path class="st3" d="M1077,1463.2c0,0.1-0.1,0.1-0.1,0.1l-5.5-0.1l-5.5,0.1c-0.1,0-0.1-0.1-0.1-0.1v-7.3c0-0.1,0.1-0.1,0.1-0.1
			h1.5c0.1,0,0.1,0.1,0.1,0.1v5l3.1,0.1v-4.8c0-0.1,0.1-0.1,0.1-0.1h1.5c0.1,0,0.1,0.1,0.1,0.1v4.8l4.4-0.1c0.1,0,0.1,0.1,0.1,0.1
			V1463.2z"/>
		<path class="st3" d="M1077,1451c0,0.1-0.1,0.1-0.1,0.1l-5.5-0.1l-5.5,0.1c-0.1,0-0.1-0.1-0.1-0.1v-7.6c0-0.1,0.1-0.1,0.1-0.1h1.5
			c0.1,0,0.1,0.1,0.1,0.1v5.2l2.6,0.1v-4.8c0-0.1,0.1-0.1,0.1-0.1h1.5c0.1,0,0.1,0.1,0.1,0.1v4.8l3.2-0.1v-5.3
			c0-0.1,0.1-0.1,0.1-0.1h1.5c0.1,0,0.1,0.1,0.1,0.1V1451z"/>
		<path class="st3" d="M1074.5,1433.4l-1.7,1.1v1.6l4,0c0.1,0,0.1,0.1,0.1,0.1v2.2c0,0.1-0.1,0.1-0.1,0.1l-5.5-0.1l-5.5,0.1
			c-0.1,0-0.1-0.1-0.1-0.1v-4.5c0-2.8,1.2-4.4,3.5-4.4c1.6,0,2.8,0.9,3.3,2.5l4.3-2.8c0.1,0,0.1,0,0.1,0.1v2.5c0,0.1,0,0.2-0.1,0.2
			L1074.5,1433.4z M1067.6,1433.8v2.3l3.5,0v-2.4c0-1-0.5-1.9-1.7-1.9C1068.1,1431.8,1067.6,1432.5,1067.6,1433.8z"/>
	</g>
</g>
</svg>
