<svg xmlns="http://www.w3.org/2000/svg" width="112.097" height="106.087" viewBox="0 0 112.097 106.087"><defs><style>.a{fill:#c03334;}.b{fill:#abaeb3;}.c{fill:#202534;opacity:0.5;}</style></defs><circle class="a" cx="18.001" cy="18.001" r="18.001" transform="translate(76.095)"/><circle class="b" cx="28.254" cy="28.254" r="28.254" transform="translate(13.577 36.003)"/><path class="c" d="M-450.156,1865.194a41.878,41.878,0,0,1-41.831-41.831,41.878,41.878,0,0,1,41.831-41.831,41.878,41.878,0,0,1,41.831,41.831A41.878,41.878,0,0,1-450.156,1865.194Zm0-80.548a38.761,38.761,0,0,0-38.717,38.717,38.761,38.761,0,0,0,38.717,38.718,38.761,38.761,0,0,0,38.717-38.718A38.761,38.761,0,0,0-450.156,1784.646Z" transform="translate(491.987 -1759.107)"/></svg>